<?xml version="1.0" standalone="no"?>
<!DOCTYPE svg PUBLIC "-//W3C//DTD SVG 20010904//EN"
 "http://www.w3.org/TR/2001/REC-SVG-20010904/DTD/svg10.dtd">
<svg version="1.0" xmlns="http://www.w3.org/2000/svg"
 width="512.000000pt" height="512.000000pt" viewBox="0 0 512.000000 512.000000"
 preserveAspectRatio="xMidYMid meet">

<g transform="translate(0.000000,512.000000) scale(0.100000,-0.100000)"
fill="#000000" stroke="none">
<path d="M1926 5109 c-229 -38 -437 -193 -540 -402 -58 -118 -79 -204 -79
-337 -1 -333 233 -638 548 -716 39 -9 76 -18 83 -20 9 -3 12 -45 12 -168 l0
-165 -568 -3 -568 -3 -41 -27 c-22 -15 -51 -44 -64 -65 -23 -36 -24 -48 -27
-235 l-4 -198 -134 0 c-150 0 -188 -11 -237 -70 -45 -53 -48 -86 -45 -469 l3
-359 30 -44 c18 -25 49 -52 75 -65 43 -23 50 -23 410 -23 408 0 421 2 473 71
46 62 49 89 45 471 l-3 356 -30 44 c-17 23 -49 53 -70 65 -36 20 -54 23 -177
23 l-138 0 0 165 0 165 535 0 535 0 0 -169 0 -169 -34 -6 c-121 -23 -272 -146
-331 -271 -98 -207 -65 -419 92 -586 67 -71 166 -131 239 -145 l34 -6 -2 -572
-3 -571 -106 -3 -106 -3 -12 43 c-71 240 -310 396 -553 360 -222 -32 -395
-203 -429 -424 -51 -326 239 -618 566 -571 187 27 340 152 405 330 l23 63 318
0 c306 0 319 -1 319 -19 0 -10 18 -55 40 -99 149 -297 537 -374 781 -154 63
57 123 146 146 218 l16 53 547 3 547 3 48 30 c32 20 56 45 72 74 l23 44 0 686
0 686 125 125 c195 194 195 213 4 405 l-129 131 0 223 0 223 -29 29 c-51 51
-137 33 -160 -33 -7 -18 -11 -117 -11 -242 l0 -211 -116 -115 c-126 -126 -144
-151 -144 -205 0 -54 18 -79 144 -205 l116 -115 0 -667 0 -668 -516 2 -516 3
-23 62 c-54 150 -156 254 -310 313 -83 33 -242 33 -329 1 -153 -55 -276 -184
-321 -336 l-12 -40 -107 -3 -106 -3 0 574 0 574 43 13 c331 99 476 489 289
775 -69 105 -179 190 -283 216 l-49 13 0 168 0 168 535 0 535 0 0 -165 0 -165
-137 0 c-124 0 -142 -3 -178 -23 -45 -26 -80 -73 -96 -129 -6 -24 -9 -166 -7
-387 l3 -348 30 -48 c20 -32 45 -56 74 -72 44 -23 46 -23 413 -23 343 0 371 1
406 19 47 24 77 56 97 103 13 31 15 95 15 396 0 351 0 359 -22 402 -13 24 -40
58 -61 74 -38 31 -40 31 -185 36 l-147 5 -5 195 c-5 208 -10 229 -62 277 -57
53 -54 53 -653 53 l-555 0 2 167 3 166 65 13 c79 17 205 76 285 136 134 100
240 267 275 433 l11 55 799 0 799 0 3 -211 3 -211 34 -30 c29 -26 39 -30 75
-25 28 4 49 15 64 32 23 27 23 29 20 274 l-3 248 -27 36 c-16 19 -43 46 -60
59 l-33 23 -835 3 -836 2 -17 73 c-9 39 -37 113 -62 164 -77 155 -233 300
-391 362 -116 45 -274 61 -398 40z m258 -209 c95 -24 158 -57 229 -121 199
-177 241 -475 99 -695 -105 -163 -269 -254 -455 -254 -158 0 -280 51 -393 164
-299 299 -151 810 264 911 82 19 167 18 256 -5z m-1084 -2645 l0 -315 -320 0
-320 0 0 315 0 315 320 0 320 0 0 -315z m1098 280 c227 -123 219 -451 -14
-566 -69 -34 -208 -35 -272 -1 -66 35 -119 88 -149 150 -24 48 -28 70 -28 137
0 134 59 228 180 287 55 27 67 29 145 26 71 -3 94 -9 138 -33z m1442 -280 l0
-315 -320 0 -320 0 0 315 0 315 320 0 320 0 0 -315z m928 -72 l-73 -73 -72 72
-73 73 72 72 73 73 72 -72 73 -73 -72 -72z m-3199 -1407 c61 -32 113 -84 143
-145 33 -67 33 -187 -1 -255 -31 -63 -84 -116 -147 -147 -71 -35 -188 -34
-259 3 -185 97 -228 335 -87 481 93 96 235 121 351 63z m1607 9 c58 -24 117
-78 149 -136 27 -49 30 -63 30 -144 0 -99 -15 -140 -76 -209 -80 -91 -236
-119 -351 -63 -107 53 -168 150 -168 270 0 73 13 120 48 171 81 118 238 165
368 111z"/>
<path d="M4433 3525 c-12 -8 -27 -31 -33 -50 -10 -30 -9 -41 7 -73 45 -92 183
-62 183 40 0 78 -94 127 -157 83z"/>
</g>
</svg>
